<?xml version="1.0" encoding="UTF-8"?>
<svg width="26px" height="19px" viewBox="0 0 26 19" version="1.1" xmlns="http://www.w3.org/2000/svg" xmlns:xlink="http://www.w3.org/1999/xlink">
    <title>Path</title>
    <g id="Page-1" stroke="none" stroke-width="1" fill="none" fill-rule="evenodd">
        <g id="Book_Detail_Screen" transform="translate(-360.000000, -146.000000)" fill="#FFFFFF">
            <g id="arrow" transform="translate(360.000000, 146.000000)">
                <path d="M24.9166667,8.55012737 L3.30470833,8.55012737 L11.5802917,1.63801161 C12.013625,1.27606603 12.0304167,0.674723355 11.6176667,0.294727986 C11.2054583,-0.0847923879 10.5197083,-0.0999922026 10.0858333,0.261953386 L0.634833333,8.15635717 C0.225875,8.51545279 0,8.99234698 0,9.50011579 C0,10.0074096 0.225875,10.4847788 0.653791667,10.8595492 L10.086375,18.7378032 C10.296,18.9130761 10.5646667,19 10.8333333,19 C11.1193333,19 11.4053333,18.9012012 11.6182083,18.7050286 C12.0309583,18.3250332 12.0141667,17.7241656 11.5808333,17.36222 L3.27058333,10.4501042 L24.9166667,10.4501042 C25.5146667,10.4501042 26,10.0245094 26,9.50011579 C26,8.97572218 25.5146667,8.55012737 24.9166667,8.55012737 L24.9166667,8.55012737 Z" id="Path"></path>
            </g>
        </g>
    </g>
</svg>